<svg width="105" height="12" viewBox="0 0 105 12" fill="none" xmlns="http://www.w3.org/2000/svg">
<path d="M3.42006 9.588C2.74806 9.588 2.10406 9.5 1.48806 9.324C0.872063 9.14 0.376063 8.904 6.25104e-05 8.616L0.660063 7.152C1.02006 7.408 1.44406 7.62 1.93206 7.788C2.42806 7.948 2.92806 8.028 3.43206 8.028C3.81606 8.028 4.12406 7.992 4.35606 7.92C4.59606 7.84 4.77206 7.732 4.88406 7.596C4.99606 7.46 5.05206 7.304 5.05206 7.128C5.05206 6.904 4.96406 6.728 4.78806 6.6C4.61206 6.464 4.38006 6.356 4.09206 6.276C3.80406 6.188 3.48406 6.108 3.13206 6.036C2.78806 5.956 2.44006 5.86 2.08806 5.748C1.74406 5.636 1.42806 5.492 1.14006 5.316C0.852063 5.14 0.616063 4.908 0.432063 4.62C0.256063 4.332 0.168063 3.964 0.168063 3.516C0.168063 3.036 0.296063 2.6 0.552063 2.208C0.816063 1.808 1.20806 1.492 1.72806 1.26C2.25606 1.02 2.91606 0.9 3.70806 0.9C4.23606 0.9 4.75606 0.964 5.26806 1.092C5.78006 1.212 6.23206 1.396 6.62406 1.644L6.02406 3.12C5.63206 2.896 5.24006 2.732 4.84806 2.628C4.45606 2.516 4.07206 2.46 3.69606 2.46C3.32006 2.46 3.01206 2.504 2.77206 2.592C2.53206 2.68 2.36006 2.796 2.25606 2.94C2.15206 3.076 2.10006 3.236 2.10006 3.42C2.10006 3.636 2.18806 3.812 2.36406 3.948C2.54006 4.076 2.77206 4.18 3.06006 4.26C3.34806 4.34 3.66406 4.42 4.00806 4.5C4.36006 4.58 4.70806 4.672 5.05206 4.776C5.40406 4.88 5.72406 5.02 6.01206 5.196C6.30006 5.372 6.53206 5.604 6.70806 5.892C6.89206 6.18 6.98406 6.544 6.98406 6.984C6.98406 7.456 6.85206 7.888 6.58806 8.28C6.32406 8.672 5.92806 8.988 5.40006 9.228C4.88006 9.468 4.22006 9.588 3.42006 9.588ZM15.9484 2.892C16.4604 2.892 16.9124 2.996 17.3044 3.204C17.7044 3.404 18.0164 3.716 18.2404 4.14C18.4724 4.556 18.5884 5.092 18.5884 5.748V9.444H16.7164V6.036C16.7164 5.516 16.6084 5.132 16.3924 4.884C16.1764 4.636 15.8724 4.512 15.4804 4.512C15.2084 4.512 14.9644 4.576 14.7484 4.704C14.5324 4.824 14.3644 5.008 14.2444 5.256C14.1244 5.504 14.0644 5.82 14.0644 6.204V9.444H12.1924V6.036C12.1924 5.516 12.0844 5.132 11.8684 4.884C11.6604 4.636 11.3604 4.512 10.9684 4.512C10.6964 4.512 10.4524 4.576 10.2364 4.704C10.0204 4.824 9.85241 5.008 9.73241 5.256C9.61241 5.504 9.55241 5.82 9.55241 6.204V9.444H7.68041V2.988H9.46841V4.752L9.13241 4.236C9.35641 3.796 9.67241 3.464 10.0804 3.24C10.4964 3.008 10.9684 2.892 11.4964 2.892C12.0884 2.892 12.6044 3.044 13.0444 3.348C13.4924 3.644 13.7884 4.1 13.9324 4.716L13.2724 4.536C13.4884 4.032 13.8324 3.632 14.3044 3.336C14.7844 3.04 15.3324 2.892 15.9484 2.892ZM23.7263 9.444V8.184L23.6063 7.908V5.652C23.6063 5.252 23.4823 4.94 23.2343 4.716C22.9943 4.492 22.6223 4.38 22.1183 4.38C21.7743 4.38 21.4343 4.436 21.0983 4.548C20.7703 4.652 20.4903 4.796 20.2583 4.98L19.5863 3.672C19.9383 3.424 20.3623 3.232 20.8583 3.096C21.3543 2.96 21.8583 2.892 22.3703 2.892C23.3543 2.892 24.1183 3.124 24.6623 3.588C25.2063 4.052 25.4783 4.776 25.4783 5.76V9.444H23.7263ZM21.7583 9.54C21.2543 9.54 20.8223 9.456 20.4623 9.288C20.1023 9.112 19.8263 8.876 19.6343 8.58C19.4423 8.284 19.3463 7.952 19.3463 7.584C19.3463 7.2 19.4383 6.864 19.6223 6.576C19.8143 6.288 20.1143 6.064 20.5223 5.904C20.9303 5.736 21.4623 5.652 22.1183 5.652H23.8343V6.744H22.3223C21.8823 6.744 21.5783 6.816 21.4103 6.96C21.2503 7.104 21.1703 7.284 21.1703 7.5C21.1703 7.74 21.2623 7.932 21.4463 8.076C21.6383 8.212 21.8983 8.28 22.2263 8.28C22.5383 8.28 22.8183 8.208 23.0663 8.064C23.3143 7.912 23.4943 7.692 23.6063 7.404L23.8943 8.268C23.7583 8.684 23.5103 9 23.1503 9.216C22.7903 9.432 22.3263 9.54 21.7583 9.54ZM26.6726 9.444V2.988H28.4606V4.812L28.2086 4.284C28.4006 3.828 28.7086 3.484 29.1326 3.252C29.5566 3.012 30.0726 2.892 30.6806 2.892V4.62C30.6006 4.612 30.5286 4.608 30.4646 4.608C30.4006 4.6 30.3326 4.596 30.2606 4.596C29.7486 4.596 29.3326 4.744 29.0126 5.04C28.7006 5.328 28.5446 5.78 28.5446 6.396V9.444H26.6726ZM34.1563 9.54C33.3963 9.54 32.8043 9.348 32.3803 8.964C31.9563 8.572 31.7443 7.992 31.7443 7.224V1.56H33.6163V7.2C33.6163 7.472 33.6883 7.684 33.8323 7.836C33.9763 7.98 34.1723 8.052 34.4203 8.052C34.7163 8.052 34.9683 7.972 35.1763 7.812L35.6803 9.132C35.4883 9.268 35.2563 9.372 34.9843 9.444C34.7203 9.508 34.4443 9.54 34.1563 9.54ZM30.7483 4.572V3.132H35.2243V4.572H30.7483Z" fill="#003379"/>
<path d="M38.1576 9.444L41.9016 1.044H43.8216L47.5776 9.444H45.5376L42.4656 2.028H43.2336L40.1496 9.444H38.1576ZM40.0296 7.644L40.5456 6.168H44.8656L45.3936 7.644H40.0296ZM51.6331 9.54C51.0651 9.54 50.5771 9.42 50.1691 9.18C49.7611 8.94 49.4491 8.576 49.2331 8.088C49.0171 7.592 48.9091 6.968 48.9091 6.216C48.9091 5.456 49.0211 4.832 49.2451 4.344C49.4771 3.856 49.7971 3.492 50.2051 3.252C50.6131 3.012 51.0891 2.892 51.6331 2.892C52.2411 2.892 52.7851 3.028 53.2651 3.3C53.7531 3.572 54.1371 3.956 54.4171 4.452C54.7051 4.948 54.8491 5.536 54.8491 6.216C54.8491 6.888 54.7051 7.472 54.4171 7.968C54.1371 8.464 53.7531 8.852 53.2651 9.132C52.7851 9.404 52.2411 9.54 51.6331 9.54ZM47.8171 9.444V0.54H49.6891V4.296L49.5691 6.204L49.6051 8.124V9.444H47.8171ZM51.3091 8.004C51.6211 8.004 51.8971 7.932 52.1371 7.788C52.3851 7.644 52.5811 7.44 52.7251 7.176C52.8771 6.904 52.9531 6.584 52.9531 6.216C52.9531 5.84 52.8771 5.52 52.7251 5.256C52.5811 4.992 52.3851 4.788 52.1371 4.644C51.8971 4.5 51.6211 4.428 51.3091 4.428C50.9971 4.428 50.7171 4.5 50.4691 4.644C50.2211 4.788 50.0251 4.992 49.8811 5.256C49.7371 5.52 49.6651 5.84 49.6651 6.216C49.6651 6.584 49.7371 6.904 49.8811 7.176C50.0251 7.44 50.2211 7.644 50.4691 7.788C50.7171 7.932 50.9971 8.004 51.3091 8.004ZM55.6023 9.444V2.988H57.4743V9.444H55.6023ZM56.5383 2.088C56.1943 2.088 55.9143 1.988 55.6983 1.788C55.4823 1.588 55.3743 1.34 55.3743 1.044C55.3743 0.748 55.4823 0.5 55.6983 0.3C55.9143 0.0999997 56.1943 -4.76837e-07 56.5383 -4.76837e-07C56.8823 -4.76837e-07 57.1623 0.0959997 57.3783 0.288C57.5943 0.472 57.7023 0.712 57.7023 1.008C57.7023 1.32 57.5943 1.58 57.3783 1.788C57.1703 1.988 56.8903 2.088 56.5383 2.088ZM61.3517 9.54C60.5917 9.54 59.9997 9.348 59.5757 8.964C59.1517 8.572 58.9397 7.992 58.9397 7.224V1.56H60.8117V7.2C60.8117 7.472 60.8837 7.684 61.0277 7.836C61.1717 7.98 61.3677 8.052 61.6157 8.052C61.9117 8.052 62.1637 7.972 62.3717 7.812L62.8757 9.132C62.6837 9.268 62.4517 9.372 62.1797 9.444C61.9157 9.508 61.6397 9.54 61.3517 9.54ZM57.9437 4.572V3.132H62.4197V4.572H57.9437ZM66.1505 9.54C65.6145 9.54 65.1345 9.436 64.7105 9.228C64.2945 9.02 63.9705 8.704 63.7385 8.28C63.5065 7.848 63.3905 7.3 63.3905 6.636V2.988H65.2625V6.36C65.2625 6.896 65.3745 7.292 65.5985 7.548C65.8305 7.796 66.1545 7.92 66.5705 7.92C66.8585 7.92 67.1145 7.86 67.3385 7.74C67.5625 7.612 67.7385 7.42 67.8665 7.164C67.9945 6.9 68.0585 6.572 68.0585 6.18V2.988H69.9305V9.444H68.1545V7.668L68.4785 8.184C68.2625 8.632 67.9425 8.972 67.5185 9.204C67.1025 9.428 66.6465 9.54 66.1505 9.54ZM71.1648 9.444V2.988H72.9528V4.812L72.7008 4.284C72.8928 3.828 73.2008 3.484 73.6248 3.252C74.0488 3.012 74.5648 2.892 75.1728 2.892V4.62C75.0928 4.612 75.0208 4.608 74.9568 4.608C74.8928 4.6 74.8248 4.596 74.7528 4.596C74.2408 4.596 73.8248 4.744 73.5048 5.04C73.1928 5.328 73.0368 5.78 73.0368 6.396V9.444H71.1648ZM75.7976 9.444V2.988H77.6696V9.444H75.7976ZM76.7336 2.088C76.3896 2.088 76.1096 1.988 75.8936 1.788C75.6776 1.588 75.5696 1.34 75.5696 1.044C75.5696 0.748 75.6776 0.5 75.8936 0.3C76.1096 0.0999997 76.3896 -4.76837e-07 76.7336 -4.76837e-07C77.0776 -4.76837e-07 77.3576 0.0959997 77.5736 0.288C77.7896 0.472 77.8976 0.712 77.8976 1.008C77.8976 1.32 77.7896 1.58 77.5736 1.788C77.3656 1.988 77.0856 2.088 76.7336 2.088ZM79.723 11.868C79.387 11.868 79.055 11.816 78.727 11.712C78.399 11.608 78.131 11.464 77.923 11.28L78.607 9.948C78.751 10.076 78.915 10.176 79.099 10.248C79.291 10.32 79.479 10.356 79.663 10.356C79.927 10.356 80.135 10.292 80.287 10.164C80.447 10.044 80.591 9.84 80.719 9.552L81.055 8.76L81.199 8.556L83.515 2.988H85.315L82.399 9.84C82.191 10.36 81.951 10.768 81.679 11.064C81.415 11.36 81.119 11.568 80.791 11.688C80.471 11.808 80.115 11.868 79.723 11.868ZM80.827 9.696L77.947 2.988H79.879L82.111 8.388L80.827 9.696ZM88.6071 9.54C87.8711 9.54 87.2231 9.396 86.6631 9.108C86.1111 8.82 85.6831 8.428 85.3791 7.932C85.0751 7.428 84.9231 6.856 84.9231 6.216C84.9231 5.568 85.0711 4.996 85.3671 4.5C85.6711 3.996 86.0831 3.604 86.6031 3.324C87.1231 3.036 87.7111 2.892 88.3671 2.892C88.9991 2.892 89.5671 3.028 90.0711 3.3C90.5831 3.564 90.9871 3.948 91.2831 4.452C91.5791 4.948 91.7271 5.544 91.7271 6.24C91.7271 6.312 91.7231 6.396 91.7151 6.492C91.7071 6.58 91.6991 6.664 91.6911 6.744H86.4471V5.652H90.7071L89.9871 5.976C89.9871 5.64 89.9191 5.348 89.7831 5.1C89.6471 4.852 89.4591 4.66 89.2191 4.524C88.9791 4.38 88.6991 4.308 88.3791 4.308C88.0591 4.308 87.7751 4.38 87.5271 4.524C87.2871 4.66 87.0991 4.856 86.9631 5.112C86.8271 5.36 86.7591 5.656 86.7591 6V6.288C86.7591 6.64 86.8351 6.952 86.9871 7.224C87.1471 7.488 87.3671 7.692 87.6471 7.836C87.9351 7.972 88.2711 8.04 88.6551 8.04C88.9991 8.04 89.2991 7.988 89.5551 7.884C89.8191 7.78 90.0591 7.624 90.2751 7.416L91.2711 8.496C90.9751 8.832 90.6031 9.092 90.1551 9.276C89.7071 9.452 89.1911 9.54 88.6071 9.54ZM96.3974 2.892C96.9094 2.892 97.3654 2.996 97.7654 3.204C98.1734 3.404 98.4934 3.716 98.7254 4.14C98.9574 4.556 99.0734 5.092 99.0734 5.748V9.444H97.2014V6.036C97.2014 5.516 97.0854 5.132 96.8534 4.884C96.6294 4.636 96.3094 4.512 95.8934 4.512C95.5974 4.512 95.3294 4.576 95.0894 4.704C94.8574 4.824 94.6734 5.012 94.5374 5.268C94.4094 5.524 94.3454 5.852 94.3454 6.252V9.444H92.4734V2.988H94.2614V4.776L93.9254 4.236C94.1574 3.804 94.4894 3.472 94.9214 3.24C95.3534 3.008 95.8454 2.892 96.3974 2.892ZM102.91 9.54C102.15 9.54 101.558 9.348 101.134 8.964C100.71 8.572 100.498 7.992 100.498 7.224V1.56H102.37V7.2C102.37 7.472 102.442 7.684 102.586 7.836C102.73 7.98 102.926 8.052 103.174 8.052C103.47 8.052 103.722 7.972 103.93 7.812L104.434 9.132C104.242 9.268 104.01 9.372 103.738 9.444C103.474 9.508 103.198 9.54 102.91 9.54ZM99.5023 4.572V3.132H103.978V4.572H99.5023Z" fill="#FB9D03"/>
</svg>
